<mxfile host="app.diagrams.net" agent="Mozilla/5.0 (Windows NT 10.0; Win64; x64) AppleWebKit/537.36 (KHTML, like Gecko) Chrome/127.0.0.0 Safari/537.36" version="24.7.7">
  <diagram name="第 1 页" id="MAkQFHJNIvorQ8OaMqpP">
    <mxGraphModel dx="1221" dy="725" grid="1" gridSize="10" guides="1" tooltips="1" connect="1" arrows="1" fold="1" page="1" pageScale="1" pageWidth="827" pageHeight="1169" math="0" shadow="0">
      <root>
        <mxCell id="0" />
        <mxCell id="1" parent="0" />
        <mxCell id="rAopg30Zb1RhLfwCDvSp-1" style="edgeStyle=orthogonalEdgeStyle;rounded=0;orthogonalLoop=1;jettySize=auto;html=1;exitX=1;exitY=0.5;exitDx=0;exitDy=0;" edge="1" parent="1" source="rAopg30Zb1RhLfwCDvSp-2" target="rAopg30Zb1RhLfwCDvSp-4">
          <mxGeometry relative="1" as="geometry" />
        </mxCell>
        <mxCell id="rAopg30Zb1RhLfwCDvSp-2" value="剖面分析" style="rounded=0;whiteSpace=wrap;html=1;" vertex="1" parent="1">
          <mxGeometry x="240" y="210" width="120" height="60" as="geometry" />
        </mxCell>
        <mxCell id="rAopg30Zb1RhLfwCDvSp-3" style="edgeStyle=orthogonalEdgeStyle;rounded=0;orthogonalLoop=1;jettySize=auto;html=1;exitX=1;exitY=0.5;exitDx=0;exitDy=0;" edge="1" parent="1" source="rAopg30Zb1RhLfwCDvSp-4" target="rAopg30Zb1RhLfwCDvSp-5">
          <mxGeometry relative="1" as="geometry" />
        </mxCell>
        <mxCell id="rAopg30Zb1RhLfwCDvSp-4" value="剖面线选择" style="rounded=0;whiteSpace=wrap;html=1;" vertex="1" parent="1">
          <mxGeometry x="404" y="210" width="120" height="60" as="geometry" />
        </mxCell>
        <mxCell id="rAopg30Zb1RhLfwCDvSp-5" value="调整保存结果" style="rounded=0;whiteSpace=wrap;html=1;" vertex="1" parent="1">
          <mxGeometry x="560" y="210" width="120" height="60" as="geometry" />
        </mxCell>
        <mxCell id="rAopg30Zb1RhLfwCDvSp-6" style="edgeStyle=orthogonalEdgeStyle;rounded=0;orthogonalLoop=1;jettySize=auto;html=1;exitX=1;exitY=0.5;exitDx=0;exitDy=0;entryX=0;entryY=0.5;entryDx=0;entryDy=0;" edge="1" parent="1" source="rAopg30Zb1RhLfwCDvSp-7" target="rAopg30Zb1RhLfwCDvSp-9">
          <mxGeometry relative="1" as="geometry" />
        </mxCell>
        <mxCell id="rAopg30Zb1RhLfwCDvSp-7" value="坡向分析" style="rounded=0;whiteSpace=wrap;html=1;" vertex="1" parent="1">
          <mxGeometry x="240" y="300" width="120" height="60" as="geometry" />
        </mxCell>
        <mxCell id="rAopg30Zb1RhLfwCDvSp-8" style="edgeStyle=orthogonalEdgeStyle;rounded=0;orthogonalLoop=1;jettySize=auto;html=1;exitX=1;exitY=0.5;exitDx=0;exitDy=0;" edge="1" parent="1" source="rAopg30Zb1RhLfwCDvSp-9" target="rAopg30Zb1RhLfwCDvSp-10">
          <mxGeometry relative="1" as="geometry" />
        </mxCell>
        <mxCell id="rAopg30Zb1RhLfwCDvSp-9" value="分析区域选择" style="rounded=0;whiteSpace=wrap;html=1;" vertex="1" parent="1">
          <mxGeometry x="404" y="300" width="120" height="60" as="geometry" />
        </mxCell>
        <mxCell id="rAopg30Zb1RhLfwCDvSp-10" value="坡向图输出" style="rounded=0;whiteSpace=wrap;html=1;" vertex="1" parent="1">
          <mxGeometry x="560" y="300" width="120" height="60" as="geometry" />
        </mxCell>
        <mxCell id="rAopg30Zb1RhLfwCDvSp-11" style="edgeStyle=orthogonalEdgeStyle;rounded=0;orthogonalLoop=1;jettySize=auto;html=1;exitX=1;exitY=0.5;exitDx=0;exitDy=0;entryX=0;entryY=0.5;entryDx=0;entryDy=0;" edge="1" parent="1" source="rAopg30Zb1RhLfwCDvSp-12" target="rAopg30Zb1RhLfwCDvSp-14">
          <mxGeometry relative="1" as="geometry" />
        </mxCell>
        <mxCell id="rAopg30Zb1RhLfwCDvSp-12" value="通视分析" style="rounded=0;whiteSpace=wrap;html=1;" vertex="1" parent="1">
          <mxGeometry x="240" y="390" width="120" height="60" as="geometry" />
        </mxCell>
        <mxCell id="rAopg30Zb1RhLfwCDvSp-13" style="edgeStyle=orthogonalEdgeStyle;rounded=0;orthogonalLoop=1;jettySize=auto;html=1;exitX=1;exitY=0.5;exitDx=0;exitDy=0;" edge="1" parent="1" source="rAopg30Zb1RhLfwCDvSp-14" target="rAopg30Zb1RhLfwCDvSp-15">
          <mxGeometry relative="1" as="geometry" />
        </mxCell>
        <mxCell id="rAopg30Zb1RhLfwCDvSp-14" value="观察点和目标点选择" style="rounded=0;whiteSpace=wrap;html=1;" vertex="1" parent="1">
          <mxGeometry x="404" y="390" width="120" height="60" as="geometry" />
        </mxCell>
        <mxCell id="rAopg30Zb1RhLfwCDvSp-15" value="调整保存结果" style="rounded=0;whiteSpace=wrap;html=1;" vertex="1" parent="1">
          <mxGeometry x="560" y="390" width="120" height="60" as="geometry" />
        </mxCell>
        <mxCell id="rAopg30Zb1RhLfwCDvSp-16" style="edgeStyle=orthogonalEdgeStyle;rounded=0;orthogonalLoop=1;jettySize=auto;html=1;exitX=1;exitY=0.5;exitDx=0;exitDy=0;" edge="1" parent="1" source="rAopg30Zb1RhLfwCDvSp-17" target="rAopg30Zb1RhLfwCDvSp-19">
          <mxGeometry relative="1" as="geometry" />
        </mxCell>
        <mxCell id="rAopg30Zb1RhLfwCDvSp-17" value="等高线分析" style="rounded=0;whiteSpace=wrap;html=1;" vertex="1" parent="1">
          <mxGeometry x="240" y="480" width="120" height="60" as="geometry" />
        </mxCell>
        <mxCell id="rAopg30Zb1RhLfwCDvSp-18" style="edgeStyle=orthogonalEdgeStyle;rounded=0;orthogonalLoop=1;jettySize=auto;html=1;exitX=1;exitY=0.5;exitDx=0;exitDy=0;" edge="1" parent="1" source="rAopg30Zb1RhLfwCDvSp-19" target="rAopg30Zb1RhLfwCDvSp-20">
          <mxGeometry relative="1" as="geometry" />
        </mxCell>
        <mxCell id="rAopg30Zb1RhLfwCDvSp-19" value="区域参数选择" style="rounded=0;whiteSpace=wrap;html=1;" vertex="1" parent="1">
          <mxGeometry x="404" y="480" width="120" height="60" as="geometry" />
        </mxCell>
        <mxCell id="rAopg30Zb1RhLfwCDvSp-20" value="分析保存结果" style="rounded=0;whiteSpace=wrap;html=1;" vertex="1" parent="1">
          <mxGeometry x="560" y="480" width="120" height="60" as="geometry" />
        </mxCell>
        <mxCell id="rAopg30Zb1RhLfwCDvSp-21" style="edgeStyle=orthogonalEdgeStyle;rounded=0;orthogonalLoop=1;jettySize=auto;html=1;exitX=1;exitY=0.5;exitDx=0;exitDy=0;entryX=0;entryY=0.5;entryDx=0;entryDy=0;" edge="1" parent="1" source="rAopg30Zb1RhLfwCDvSp-25" target="rAopg30Zb1RhLfwCDvSp-2">
          <mxGeometry relative="1" as="geometry" />
        </mxCell>
        <mxCell id="rAopg30Zb1RhLfwCDvSp-22" style="edgeStyle=orthogonalEdgeStyle;rounded=0;orthogonalLoop=1;jettySize=auto;html=1;exitX=1;exitY=0.5;exitDx=0;exitDy=0;" edge="1" parent="1" source="rAopg30Zb1RhLfwCDvSp-25" target="rAopg30Zb1RhLfwCDvSp-7">
          <mxGeometry relative="1" as="geometry" />
        </mxCell>
        <mxCell id="rAopg30Zb1RhLfwCDvSp-23" style="edgeStyle=orthogonalEdgeStyle;rounded=0;orthogonalLoop=1;jettySize=auto;html=1;exitX=1;exitY=0.5;exitDx=0;exitDy=0;" edge="1" parent="1" source="rAopg30Zb1RhLfwCDvSp-25" target="rAopg30Zb1RhLfwCDvSp-12">
          <mxGeometry relative="1" as="geometry" />
        </mxCell>
        <mxCell id="rAopg30Zb1RhLfwCDvSp-24" style="edgeStyle=orthogonalEdgeStyle;rounded=0;orthogonalLoop=1;jettySize=auto;html=1;exitX=1;exitY=0.5;exitDx=0;exitDy=0;entryX=0;entryY=0.5;entryDx=0;entryDy=0;" edge="1" parent="1" source="rAopg30Zb1RhLfwCDvSp-25" target="rAopg30Zb1RhLfwCDvSp-17">
          <mxGeometry relative="1" as="geometry" />
        </mxCell>
        <mxCell id="rAopg30Zb1RhLfwCDvSp-36" style="edgeStyle=orthogonalEdgeStyle;rounded=0;orthogonalLoop=1;jettySize=auto;html=1;exitX=1;exitY=0.5;exitDx=0;exitDy=0;entryX=0;entryY=0.5;entryDx=0;entryDy=0;" edge="1" parent="1" source="rAopg30Zb1RhLfwCDvSp-25" target="rAopg30Zb1RhLfwCDvSp-27">
          <mxGeometry relative="1" as="geometry" />
        </mxCell>
        <mxCell id="rAopg30Zb1RhLfwCDvSp-37" style="edgeStyle=orthogonalEdgeStyle;rounded=0;orthogonalLoop=1;jettySize=auto;html=1;exitX=1;exitY=0.5;exitDx=0;exitDy=0;entryX=0;entryY=0.5;entryDx=0;entryDy=0;" edge="1" parent="1" source="rAopg30Zb1RhLfwCDvSp-25" target="rAopg30Zb1RhLfwCDvSp-32">
          <mxGeometry relative="1" as="geometry" />
        </mxCell>
        <mxCell id="rAopg30Zb1RhLfwCDvSp-25" value="&lt;b style=&quot;font-size: 16px;&quot;&gt;&lt;font style=&quot;font-size: 16px;&quot;&gt;空&lt;/font&gt;&lt;/b&gt;&lt;div style=&quot;font-size: 16px;&quot;&gt;&lt;b&gt;&lt;font style=&quot;font-size: 16px;&quot;&gt;间&lt;/font&gt;&lt;/b&gt;&lt;/div&gt;&lt;div style=&quot;font-size: 16px;&quot;&gt;&lt;b&gt;&lt;font style=&quot;font-size: 16px;&quot;&gt;分&lt;/font&gt;&lt;/b&gt;&lt;/div&gt;&lt;div style=&quot;font-size: 16px;&quot;&gt;&lt;b style=&quot;&quot;&gt;&lt;font style=&quot;font-size: 16px;&quot;&gt;析&lt;/font&gt;&lt;/b&gt;&lt;/div&gt;" style="rounded=1;whiteSpace=wrap;html=1;" vertex="1" parent="1">
          <mxGeometry x="140" y="340" width="40" height="220" as="geometry" />
        </mxCell>
        <mxCell id="rAopg30Zb1RhLfwCDvSp-26" style="edgeStyle=orthogonalEdgeStyle;rounded=0;orthogonalLoop=1;jettySize=auto;html=1;exitX=1;exitY=0.5;exitDx=0;exitDy=0;" edge="1" parent="1" source="rAopg30Zb1RhLfwCDvSp-27" target="rAopg30Zb1RhLfwCDvSp-29">
          <mxGeometry relative="1" as="geometry" />
        </mxCell>
        <mxCell id="rAopg30Zb1RhLfwCDvSp-27" value="填挖方分析" style="rounded=0;whiteSpace=wrap;html=1;" vertex="1" parent="1">
          <mxGeometry x="240" y="570" width="120" height="60" as="geometry" />
        </mxCell>
        <mxCell id="rAopg30Zb1RhLfwCDvSp-28" style="edgeStyle=orthogonalEdgeStyle;rounded=0;orthogonalLoop=1;jettySize=auto;html=1;exitX=1;exitY=0.5;exitDx=0;exitDy=0;" edge="1" parent="1" source="rAopg30Zb1RhLfwCDvSp-29" target="rAopg30Zb1RhLfwCDvSp-30">
          <mxGeometry relative="1" as="geometry" />
        </mxCell>
        <mxCell id="rAopg30Zb1RhLfwCDvSp-29" value="施工区域剖分" style="rounded=0;whiteSpace=wrap;html=1;" vertex="1" parent="1">
          <mxGeometry x="404" y="570" width="120" height="60" as="geometry" />
        </mxCell>
        <mxCell id="rAopg30Zb1RhLfwCDvSp-30" value="调整保存结果" style="rounded=0;whiteSpace=wrap;html=1;" vertex="1" parent="1">
          <mxGeometry x="560" y="570" width="120" height="60" as="geometry" />
        </mxCell>
        <mxCell id="rAopg30Zb1RhLfwCDvSp-31" style="edgeStyle=orthogonalEdgeStyle;rounded=0;orthogonalLoop=1;jettySize=auto;html=1;exitX=1;exitY=0.5;exitDx=0;exitDy=0;" edge="1" parent="1" source="rAopg30Zb1RhLfwCDvSp-32" target="rAopg30Zb1RhLfwCDvSp-34">
          <mxGeometry relative="1" as="geometry" />
        </mxCell>
        <mxCell id="rAopg30Zb1RhLfwCDvSp-32" value="水淹分析" style="rounded=0;whiteSpace=wrap;html=1;" vertex="1" parent="1">
          <mxGeometry x="240" y="660" width="120" height="60" as="geometry" />
        </mxCell>
        <mxCell id="rAopg30Zb1RhLfwCDvSp-33" style="edgeStyle=orthogonalEdgeStyle;rounded=0;orthogonalLoop=1;jettySize=auto;html=1;exitX=1;exitY=0.5;exitDx=0;exitDy=0;" edge="1" parent="1" source="rAopg30Zb1RhLfwCDvSp-34" target="rAopg30Zb1RhLfwCDvSp-35">
          <mxGeometry relative="1" as="geometry" />
        </mxCell>
        <mxCell id="rAopg30Zb1RhLfwCDvSp-34" value="淹没高度设置" style="rounded=0;whiteSpace=wrap;html=1;" vertex="1" parent="1">
          <mxGeometry x="404" y="660" width="120" height="60" as="geometry" />
        </mxCell>
        <mxCell id="rAopg30Zb1RhLfwCDvSp-35" value="分析保存结果" style="rounded=0;whiteSpace=wrap;html=1;" vertex="1" parent="1">
          <mxGeometry x="560" y="660" width="120" height="60" as="geometry" />
        </mxCell>
      </root>
    </mxGraphModel>
  </diagram>
</mxfile>
